<svg width="324" height="41" viewBox="0 0 324 41" fill="none" xmlns="http://www.w3.org/2000/svg">
<path d="M10.8001 35.998C10.6718 35.9359 10.561 35.8357 10.4962 35.706C10.4314 35.5764 10.4174 35.4295 10.4583 35.2946C10.4991 35.1596 10.5922 35.0452 10.718 34.9733C10.8439 34.9013 10.9917 34.8794 11.1329 34.8989C11.5138 34.9476 11.9212 34.9875 12.3111 35.0157C15.8913 35.2445 19.498 35.1771 23.0672 35.141C26.6454 35.0853 30.2148 35.0028 33.8418 34.7282C34.244 34.6973 34.6496 34.6629 35.0533 34.6259C35.1953 34.6127 35.342 34.6412 35.4645 34.7187C35.587 34.7962 35.6749 34.9146 35.7097 35.0513C35.7445 35.1879 35.724 35.334 35.6535 35.4606C35.583 35.5873 35.4679 35.6825 35.3369 35.7388C34.9532 35.9024 34.5625 36.0578 34.1712 36.204C30.6349 37.5193 26.8638 38.147 23.1109 38.2032C19.3614 38.2413 15.579 37.7805 11.9815 36.4914C11.5898 36.3452 11.1808 36.18 10.8001 35.998Z" fill="#FDB212"/>
<path d="M39.2622 33.6523C39.3635 33.5525 39.4365 33.4226 39.457 33.2794C39.4775 33.1363 39.4446 32.993 39.3637 32.8782C39.2827 32.7634 39.1588 32.6843 39.0171 32.6555C38.8754 32.6267 38.7285 32.6519 38.6005 32.7137C38.2625 32.874 37.9034 33.0393 37.5606 33.1876C34.4059 34.5475 31.1952 35.5837 27.9628 36.4287C24.7228 37.266 21.4362 37.8846 18.0001 38.1934C17.6159 38.2274 17.2368 38.258 16.8477 38.2838C16.7058 38.2931 16.5656 38.3436 16.4565 38.4387C16.3475 38.5336 16.2787 38.6635 16.2649 38.8033C16.2511 38.9431 16.2932 39.0839 16.3817 39.1983C16.4701 39.3128 16.5977 39.3897 16.735 39.4266C17.1259 39.5293 17.5118 39.6209 17.9077 39.7027C21.4499 40.4415 25.2023 40.311 28.7307 39.3933C32.2567 38.4749 35.5903 36.8129 38.3677 34.4663C38.6681 34.2089 38.9797 33.9297 39.2622 33.6523Z" fill="#FDB212"/>
<path d="M37.666 27.2229C37.7449 27.075 37.7839 26.9036 37.7595 26.7347C37.7353 26.5659 37.6513 26.4147 37.5224 26.3115C37.3935 26.2082 37.2276 26.1593 37.0576 26.1724C36.8874 26.1855 36.7287 26.2609 36.6016 26.3703C36.294 26.633 35.986 26.8841 35.6728 27.1294C32.8582 29.3316 29.8204 30.8504 26.6064 31.8746C23.3904 32.8957 19.9819 33.4356 16.3754 33.5519C15.9737 33.5644 15.5721 33.5719 15.165 33.5734C14.9973 33.5737 14.8278 33.6202 14.6905 33.7215C14.5531 33.8226 14.4595 33.968 14.4294 34.1304C14.3992 34.2928 14.4344 34.4621 14.5263 34.6058C14.6182 34.7496 14.7596 34.8538 14.9161 34.9143C15.3151 35.0654 15.7167 35.2039 16.126 35.3302C19.7928 36.4708 23.9113 36.5548 27.7094 35.34C31.5069 34.1508 34.9057 31.6061 37.0061 28.3323C37.2417 27.9692 37.4601 27.6011 37.666 27.2229Z" fill="#FDB212"/>
<path d="M36.4817 38.34C36.6206 38.3637 36.7547 38.4252 36.855 38.5276C36.9553 38.6298 37.0135 38.7626 37.017 38.901C37.0204 39.0395 36.9689 39.1751 36.8738 39.2822C36.7788 39.3894 36.6479 39.4575 36.5104 39.4881C36.0345 39.5464 35.693 39.5041 35.3452 39.4796C32.2368 39.1253 29.4102 38.2211 26.6508 37.1309C23.9005 36.0247 21.2698 34.6465 18.7464 33.038C18.4652 32.859 18.1798 32.6751 17.9114 32.4952C17.7941 32.4174 17.6963 32.3069 17.646 32.1727C17.5957 32.0386 17.5962 31.8936 17.6491 31.7656C17.7019 31.6376 17.8039 31.5345 17.9342 31.475C18.0645 31.4155 18.2118 31.4061 18.3498 31.4338C18.6679 31.4961 19.0005 31.5684 19.3262 31.6415C22.2508 32.2974 25.0689 33.1938 27.7934 34.2895C30.5158 35.3673 33.1543 36.7425 35.7253 38.0161C35.9864 38.144 36.3257 38.2797 36.4817 38.34Z" fill="#FDB212"/>
<path d="M3.8557 4.27952C3.07226 1.34446 3.64462 -0.956141 5.06464 0.537312C5.39877 0.888683 6.1737 1.56455 6.65534 2.0349C8.17365 3.51774 14.1954 9.08449 23.4882 11.2051C25.0932 8.75898 27.3248 4.61441 32.1393 4.73551C36.0809 4.83486 37.5471 7.25266 38.1283 8.65915L42.4526 9.94919C42.4526 9.94919 42.9646 10.0477 42.444 10.2919C41.9231 10.5361 40.5345 11.1866 38.8873 11.9166C36.98 12.7619 38.3673 12.7815 35.2192 18.6183C28.9616 28.7497 19.1028 28.6726 14.7499 27.877C11.3195 31.306 9.29019 33.4212 5.61453 33.1348C3.98872 33.0081 3.74875 32.3159 4.70171 31.9112C5.56947 31.5043 6.09503 31.0885 6.53433 30.6708C6.04304 30.8871 5.36697 30.9809 4.42215 31.0269C2.8322 31.0726 1.82795 30.7237 1.47832 30.5434C0.286214 29.9414 0.767868 29.7132 1.97549 29.4218L3.78985 28.8667C5.48308 28.3493 12.0669 25.4944 15.5982 21.4676C9.86352 21.0658 7.00546 18.7647 5.17855 16.4036C2.85696 13.2583 5.6397 15.129 7.61706 14.9216C4.25436 13.2956 2.86487 9.57162 2.90566 7.94327C2.91214 7.6862 3.00013 7.60179 3.3429 7.61043C3.77136 7.62123 4.45689 7.63954 6.49549 8.37664C6.48991 8.37101 4.5719 6.43809 3.8557 4.27952ZM34.083 8.62361C33.5151 8.60939 33.0434 9.05784 33.0291 9.62569C33.0149 10.1935 33.4634 10.6652 34.0312 10.6796C34.599 10.6939 35.0707 10.2454 35.0851 9.67752C35.0994 9.10961 34.6509 8.63793 34.083 8.62361Z" fill="#3F6CB9"/>
<path d="M313.135 31.4822C310.721 31.4822 308.619 30.9852 306.83 29.9911C305.069 28.9687 303.706 27.5912 302.74 25.8587C301.803 24.1262 301.334 22.1665 301.334 19.9796C301.334 17.4235 301.846 15.2508 302.868 13.4615C303.919 11.6438 305.282 10.2521 306.958 9.28646C308.634 8.32081 310.409 7.83799 312.283 7.83799C313.732 7.83799 315.095 8.1362 316.373 8.73263C317.68 9.32906 318.83 10.1527 319.824 11.2036C320.818 12.226 321.599 13.4189 322.167 14.7821C322.763 16.1454 323.062 17.5939 323.062 19.1276C323.033 19.8092 322.763 20.363 322.252 20.7891C321.741 21.2151 321.145 21.4281 320.463 21.4281H304.189L302.911 17.1679H318.546L317.609 18.0199V16.8697C317.552 16.046 317.253 15.3076 316.714 14.6543C316.203 14.0011 315.549 13.4899 314.754 13.1207C313.987 12.723 313.164 12.5242 312.283 12.5242C311.431 12.5242 310.636 12.6378 309.897 12.865C309.159 13.0923 308.52 13.4757 307.98 14.0153C307.441 14.5549 307.015 15.2792 306.702 16.188C306.39 17.0969 306.234 18.2471 306.234 19.6388C306.234 21.1725 306.546 22.4789 307.171 23.5582C307.824 24.6091 308.648 25.4185 309.642 25.9865C310.664 26.5261 311.744 26.796 312.88 26.796C313.931 26.796 314.768 26.7108 315.393 26.5404C316.018 26.3699 316.515 26.1711 316.884 25.9439C317.282 25.6883 317.637 25.4753 317.949 25.3049C318.461 25.0493 318.943 24.9215 319.398 24.9215C320.023 24.9215 320.534 25.1345 320.931 25.5605C321.358 25.9865 321.57 26.4835 321.57 27.0516C321.57 27.8184 321.173 28.5143 320.378 29.1391C319.639 29.7639 318.603 30.3177 317.268 30.8006C315.933 31.255 314.555 31.4822 313.135 31.4822Z" fill="#1D1B20"/>
<path d="M286.283 8.69003H296.38C297.061 8.69003 297.629 8.91724 298.084 9.37166C298.538 9.82609 298.766 10.3941 298.766 11.0757C298.766 11.729 298.538 12.2828 298.084 12.7372C297.629 13.1633 297.061 13.3763 296.38 13.3763H286.283C285.601 13.3763 285.033 13.1491 284.579 12.6946C284.125 12.2402 283.897 11.6722 283.897 10.9905C283.897 10.3373 284.125 9.79768 284.579 9.37166C285.033 8.91724 285.601 8.69003 286.283 8.69003ZM290.842 3.36475C291.58 3.36475 292.176 3.62036 292.631 4.13159C293.114 4.61442 293.355 5.22505 293.355 5.96348V24.9215C293.355 25.3191 293.426 25.6457 293.568 25.9013C293.738 26.1569 293.951 26.3415 294.207 26.4551C294.491 26.5687 294.789 26.6255 295.102 26.6255C295.443 26.6255 295.755 26.5687 296.039 26.4551C296.323 26.3131 296.65 26.2421 297.019 26.2421C297.416 26.2421 297.771 26.4267 298.084 26.796C298.425 27.1652 298.595 27.6764 298.595 28.3296C298.595 29.1249 298.155 29.7781 297.274 30.2893C296.422 30.8006 295.499 31.0562 294.505 31.0562C293.909 31.0562 293.241 31.0136 292.503 30.9284C291.793 30.8148 291.111 30.5734 290.458 30.2041C289.833 29.8065 289.308 29.2101 288.882 28.4148C288.456 27.6196 288.243 26.5261 288.243 25.1345V5.96348C288.243 5.22505 288.484 4.61442 288.967 4.13159C289.478 3.62036 290.103 3.36475 290.842 3.36475Z" fill="#1D1B20"/>
<path d="M278.788 7.83799C279.527 7.83799 280.137 8.0794 280.62 8.56223C281.103 9.04505 281.344 9.66988 281.344 10.4367V28.4574C281.344 29.1959 281.103 29.8207 280.62 30.3319C280.137 30.8148 279.527 31.0562 278.788 31.0562C278.05 31.0562 277.439 30.8148 276.956 30.3319C276.474 29.8207 276.232 29.1959 276.232 28.4574V26.3699L277.169 26.7534C277.169 27.1226 276.971 27.577 276.573 28.1166C276.175 28.6279 275.636 29.1391 274.954 29.6503C274.273 30.1615 273.463 30.6018 272.526 30.971C271.617 31.3118 270.623 31.4822 269.544 31.4822C267.584 31.4822 265.809 30.9852 264.218 29.9911C262.628 28.9687 261.364 27.577 260.427 25.8161C259.518 24.0268 259.064 21.9819 259.064 19.6814C259.064 17.3525 259.518 15.3076 260.427 13.5467C261.364 11.7574 262.614 10.3657 264.176 9.37167C265.738 8.34922 267.47 7.83799 269.373 7.83799C270.595 7.83799 271.716 8.0226 272.739 8.39182C273.761 8.76103 274.642 9.22966 275.38 9.79769C276.147 10.3657 276.729 10.9479 277.127 11.5444C277.553 12.1124 277.766 12.5952 277.766 12.9929L276.232 13.5467V10.4367C276.232 9.69828 276.474 9.08765 276.956 8.60483C277.439 8.0936 278.05 7.83799 278.788 7.83799ZM270.183 26.796C271.432 26.796 272.526 26.4836 273.463 25.8587C274.4 25.2339 275.125 24.3818 275.636 23.3026C276.175 22.2233 276.445 21.0163 276.445 19.6814C276.445 18.3181 276.175 17.0969 275.636 16.0176C275.125 14.9384 274.4 14.0863 273.463 13.4615C272.526 12.8366 271.432 12.5242 270.183 12.5242C268.961 12.5242 267.882 12.8366 266.945 13.4615C266.008 14.0863 265.269 14.9384 264.73 16.0176C264.218 17.0969 263.963 18.3181 263.963 19.6814C263.963 21.0163 264.218 22.2233 264.73 23.3026C265.269 24.3818 266.008 25.2339 266.945 25.8587C267.882 26.4836 268.961 26.796 270.183 26.796Z" fill="#1D1B20"/>
<path d="M243.479 7.83799C244.672 7.83799 245.765 8.0226 246.759 8.39182C247.753 8.76103 248.606 9.22966 249.316 9.79769C250.054 10.3657 250.622 10.9479 251.02 11.5444C251.446 12.1124 251.659 12.5952 251.659 12.9929L250.551 13.5467V10.4367C250.551 9.69828 250.792 9.08765 251.275 8.60483C251.758 8.0936 252.369 7.83799 253.107 7.83799C253.846 7.83799 254.456 8.0794 254.939 8.56223C255.422 9.04505 255.663 9.66988 255.663 10.4367V29.3947C255.663 31.8656 255.124 33.8395 254.044 35.3164C252.994 36.8217 251.602 37.9009 249.869 38.5542C248.137 39.2358 246.277 39.5766 244.289 39.5766C243.72 39.5766 242.982 39.5056 242.073 39.3636C241.164 39.2216 240.298 39.0512 239.474 38.8524C238.651 38.6536 238.026 38.469 237.6 38.2986C236.748 37.9293 236.151 37.4607 235.811 36.8927C235.498 36.3531 235.441 35.7708 235.64 35.146C235.896 34.3224 236.308 33.7543 236.876 33.4419C237.444 33.1579 238.04 33.1295 238.665 33.3567C238.949 33.4419 239.418 33.6123 240.071 33.8679C240.724 34.1235 241.434 34.3508 242.201 34.5496C242.996 34.7768 243.692 34.8904 244.289 34.8904C246.419 34.8904 247.995 34.4644 249.017 33.6123C250.04 32.7603 250.551 31.5816 250.551 30.0763V26.3699L251.062 26.7534C251.062 27.1226 250.863 27.577 250.466 28.1166C250.097 28.6279 249.571 29.1391 248.89 29.6503C248.236 30.1615 247.455 30.6018 246.546 30.971C245.638 31.3118 244.672 31.4822 243.649 31.4822C241.633 31.4822 239.815 30.9852 238.196 29.9911C236.578 28.9687 235.299 27.577 234.362 25.8161C233.425 24.0268 232.956 21.9819 232.956 19.6814C232.956 17.3525 233.425 15.3076 234.362 13.5467C235.299 11.7574 236.563 10.3657 238.154 9.37167C239.744 8.34922 241.519 7.83799 243.479 7.83799ZM244.289 12.5242C243.01 12.5242 241.889 12.8366 240.923 13.4615C239.957 14.0863 239.205 14.9384 238.665 16.0176C238.125 17.0969 237.856 18.3181 237.856 19.6814C237.856 21.0163 238.125 22.2233 238.665 23.3026C239.205 24.3818 239.957 25.2339 240.923 25.8587C241.889 26.4836 243.01 26.796 244.289 26.796C245.595 26.796 246.731 26.4836 247.697 25.8587C248.662 25.2339 249.415 24.3818 249.955 23.3026C250.494 22.2233 250.764 21.0163 250.764 19.6814C250.764 18.3181 250.494 17.0969 249.955 16.0176C249.415 14.9384 248.662 14.0863 247.697 13.4615C246.731 12.8366 245.595 12.5242 244.289 12.5242Z" fill="#1D1B20"/>
<path d="M229.62 28.4575C229.62 29.1959 229.378 29.8208 228.895 30.332C228.413 30.8148 227.802 31.0562 227.063 31.0562C226.325 31.0562 225.714 30.8148 225.232 30.332C224.749 29.8208 224.507 29.1959 224.507 28.4575V10.8628C224.507 10.1244 224.749 9.51372 225.232 9.03089C225.714 8.51967 226.325 8.26406 227.063 8.26406C227.802 8.26406 228.413 8.51967 228.895 9.03089C229.378 9.51372 229.62 10.1244 229.62 10.8628V28.4575ZM227.021 5.49491C226.055 5.49491 225.374 5.33871 224.976 5.02629C224.578 4.71387 224.38 4.16004 224.38 3.3648V2.55536C224.38 1.73172 224.593 1.17789 225.019 0.893876C225.473 0.581459 226.155 0.425251 227.063 0.425251C228.057 0.425251 228.753 0.581459 229.151 0.893876C229.549 1.20629 229.747 1.76012 229.747 2.55536V3.3648C229.747 4.18845 229.534 4.75647 229.108 5.06889C228.682 5.35291 227.986 5.49491 227.021 5.49491Z" fill="#1D1B20"/>
<path d="M202.758 8.26408C203.298 8.26408 203.795 8.40609 204.249 8.6901C204.704 8.94571 205.044 9.34333 205.272 9.88296L211.534 24.1973L210.597 24.6233L216.987 9.92556C217.47 8.78951 218.223 8.24988 219.245 8.30668C219.955 8.30668 220.523 8.53389 220.949 8.98831C221.404 9.41434 221.631 9.95396 221.631 10.6072C221.631 10.806 221.588 11.019 221.503 11.2462C221.446 11.4734 221.375 11.6865 221.29 11.8853L213.323 29.4374C212.869 30.4598 212.145 30.9994 211.151 31.0563C210.611 31.1415 210.086 31.0421 209.574 30.758C209.092 30.474 208.722 30.0338 208.467 29.4374L200.543 11.8853C200.486 11.7433 200.415 11.5586 200.33 11.3314C200.273 11.1042 200.245 10.8344 200.245 10.522C200.245 10.0108 200.472 9.51374 200.926 9.03092C201.381 8.51969 201.991 8.26408 202.758 8.26408Z" fill="#1D1B20"/>
<path d="M194.995 7.83799C195.734 7.83799 196.344 8.0794 196.827 8.56223C197.31 9.04505 197.552 9.66988 197.552 10.4367V28.4574C197.552 29.1959 197.31 29.8207 196.827 30.3319C196.344 30.8148 195.734 31.0562 194.995 31.0562C194.257 31.0562 193.646 30.8148 193.163 30.3319C192.681 29.8207 192.439 29.1959 192.439 28.4574V26.3699L193.377 26.7534C193.377 27.1226 193.178 27.577 192.78 28.1166C192.382 28.6279 191.843 29.1391 191.161 29.6503C190.48 30.1615 189.67 30.6018 188.733 30.971C187.824 31.3118 186.83 31.4822 185.751 31.4822C183.791 31.4822 182.016 30.9852 180.425 29.9911C178.835 28.9687 177.571 27.577 176.634 25.8161C175.725 24.0268 175.271 21.9819 175.271 19.6814C175.271 17.3525 175.725 15.3076 176.634 13.5467C177.571 11.7574 178.821 10.3657 180.383 9.37167C181.945 8.34922 183.677 7.83799 185.58 7.83799C186.802 7.83799 187.923 8.0226 188.946 8.39182C189.968 8.76103 190.849 9.22966 191.587 9.79769C192.354 10.3657 192.936 10.9479 193.334 11.5444C193.76 12.1124 193.973 12.5952 193.973 12.9929L192.439 13.5467V10.4367C192.439 9.69828 192.681 9.08765 193.163 8.60483C193.646 8.0936 194.257 7.83799 194.995 7.83799ZM186.39 26.796C187.639 26.796 188.733 26.4836 189.67 25.8587C190.607 25.2339 191.332 24.3818 191.843 23.3026C192.382 22.2233 192.652 21.0163 192.652 19.6814C192.652 18.3181 192.382 17.0969 191.843 16.0176C191.332 14.9384 190.607 14.0863 189.67 13.4615C188.733 12.8366 187.639 12.5242 186.39 12.5242C185.168 12.5242 184.089 12.8366 183.152 13.4615C182.215 14.0863 181.476 14.9384 180.937 16.0176C180.425 17.0969 180.17 18.3181 180.17 19.6814C180.17 21.0163 180.425 22.2233 180.937 23.3026C181.476 24.3818 182.215 25.2339 183.152 25.8587C184.089 26.4836 185.168 26.796 186.39 26.796Z" fill="#1D1B20"/>
<path d="M168.908 1.23462C169.59 1.23462 170.143 1.46183 170.569 1.91625C170.995 2.37068 171.209 2.93871 171.209 3.62034V28.4574C171.209 29.1959 170.953 29.8207 170.442 30.3319C169.959 30.8147 169.348 31.0562 168.61 31.0562C168.241 31.0562 167.857 30.9994 167.46 30.8857C167.09 30.7437 166.806 30.5591 166.607 30.3319L149.865 9.07342L150.972 8.39179V28.6704C150.972 29.3521 150.745 29.9201 150.291 30.3745C149.865 30.8289 149.297 31.0562 148.587 31.0562C147.905 31.0562 147.351 30.8289 146.925 30.3745C146.499 29.9201 146.286 29.3521 146.286 28.6704V3.83335C146.286 3.09491 146.528 2.48428 147.01 2.00146C147.522 1.49023 148.147 1.23462 148.885 1.23462C149.283 1.23462 149.694 1.31982 150.12 1.49023C150.546 1.63224 150.859 1.85945 151.058 2.17187L167.289 22.8765L166.565 23.3878V3.62034C166.565 2.93871 166.778 2.37068 167.204 1.91625C167.63 1.46183 168.198 1.23462 168.908 1.23462Z" fill="#1D1B20"/>
<path d="M126.554 8.69003H136.65C137.332 8.69003 137.9 8.91724 138.354 9.37166C138.809 9.82609 139.036 10.3941 139.036 11.0757C139.036 11.729 138.809 12.2828 138.354 12.7372C137.9 13.1633 137.332 13.3763 136.65 13.3763H126.554C125.872 13.3763 125.304 13.1491 124.85 12.6946C124.395 12.2402 124.168 11.6722 124.168 10.9905C124.168 10.3373 124.395 9.79768 124.85 9.37166C125.304 8.91724 125.872 8.69003 126.554 8.69003ZM131.112 3.36475C131.851 3.36475 132.447 3.62036 132.901 4.13159C133.384 4.61442 133.626 5.22505 133.626 5.96348V24.9215C133.626 25.3191 133.697 25.6457 133.839 25.9013C134.009 26.1569 134.222 26.3415 134.478 26.4551C134.762 26.5687 135.06 26.6255 135.372 26.6255C135.713 26.6255 136.026 26.5687 136.31 26.4551C136.594 26.3131 136.92 26.2421 137.289 26.2421C137.687 26.2421 138.042 26.4267 138.354 26.796C138.695 27.1652 138.866 27.6764 138.866 28.3296C138.866 29.1249 138.425 29.7781 137.545 30.2893C136.693 30.8006 135.77 31.0562 134.776 31.0562C134.179 31.0562 133.512 31.0136 132.774 30.9284C132.064 30.8148 131.382 30.5734 130.729 30.2041C130.104 29.8065 129.578 29.2101 129.152 28.4148C128.726 27.6196 128.513 26.5261 128.513 25.1345V5.96348C128.513 5.22505 128.755 4.61442 129.238 4.13159C129.749 3.62036 130.374 3.36475 131.112 3.36475Z" fill="#1D1B20"/>
<path d="M105.277 27.5202C104.993 27.1226 104.866 26.6114 104.894 25.9865C104.922 25.3617 105.292 24.8221 106.002 24.3676C106.456 24.0836 106.939 23.97 107.45 24.0268C107.961 24.0552 108.458 24.3108 108.941 24.7937C109.765 25.6173 110.631 26.2563 111.54 26.7108C112.449 27.1652 113.585 27.3924 114.948 27.3924C115.374 27.364 115.843 27.3072 116.354 27.222C116.865 27.1084 117.305 26.8812 117.675 26.5404C118.072 26.1711 118.271 25.6173 118.271 24.8789C118.271 24.254 118.058 23.757 117.632 23.3878C117.206 23.0186 116.638 22.7062 115.928 22.4505C115.246 22.1949 114.479 21.9535 113.627 21.7263C112.747 21.4707 111.838 21.1867 110.901 20.8743C109.992 20.5618 109.154 20.1642 108.387 19.6814C107.621 19.1702 106.996 18.5027 106.513 17.6791C106.03 16.8555 105.789 15.8188 105.789 14.5691C105.789 13.1491 106.186 11.942 106.981 10.9479C107.777 9.9539 108.799 9.18706 110.049 8.64743C111.327 8.1078 112.662 7.83799 114.053 7.83799C114.934 7.83799 115.857 7.95159 116.823 8.17881C117.788 8.37761 118.711 8.71843 119.592 9.20126C120.472 9.65568 121.211 10.2663 121.807 11.0332C122.119 11.4592 122.304 11.9704 122.361 12.5668C122.418 13.1633 122.148 13.7029 121.551 14.1857C121.125 14.5265 120.628 14.6827 120.06 14.6543C119.492 14.5975 119.024 14.3987 118.654 14.0579C118.172 13.4331 117.518 12.936 116.695 12.5668C115.9 12.1976 114.977 12.013 113.926 12.013C113.5 12.013 113.031 12.0698 112.52 12.1834C112.037 12.2686 111.611 12.4816 111.242 12.8224C110.872 13.1349 110.688 13.6461 110.688 14.3561C110.688 15.0094 110.901 15.5348 111.327 15.9324C111.753 16.3016 112.321 16.614 113.031 16.8697C113.769 17.0969 114.55 17.3241 115.374 17.5513C116.226 17.7785 117.092 18.0483 117.973 18.3607C118.853 18.6731 119.663 19.085 120.401 19.5962C121.14 20.1074 121.736 20.7749 122.19 21.5985C122.645 22.3937 122.872 23.4162 122.872 24.6659C122.872 26.1143 122.446 27.3498 121.594 28.3722C120.742 29.3947 119.677 30.1757 118.399 30.7154C117.121 31.2266 115.814 31.4822 114.479 31.4822C112.804 31.4822 111.128 31.1982 109.452 30.6302C107.777 30.0337 106.385 28.9971 105.277 27.5202Z" fill="#1D1B20"/>
<path d="M93.0572 31.4822C90.6431 31.4822 88.5414 30.9852 86.7521 29.9911C84.9912 28.9687 83.6279 27.5912 82.6623 25.8587C81.725 24.1262 81.2564 22.1665 81.2564 19.9796C81.2564 17.4235 81.7676 15.2508 82.7901 13.4615C83.8409 11.6438 85.2042 10.2521 86.8799 9.28646C88.5556 8.32081 90.3307 7.83799 92.2052 7.83799C93.6536 7.83799 95.0169 8.1362 96.295 8.73263C97.6014 9.32906 98.7517 10.1527 99.7458 11.2036C100.74 12.226 101.521 13.4189 102.089 14.7821C102.685 16.1454 102.984 17.5939 102.984 19.1276C102.955 19.8092 102.685 20.363 102.174 20.7891C101.663 21.2151 101.066 21.4281 100.385 21.4281H84.1107L82.8327 17.1679H98.4677L97.5304 18.0199V16.8697C97.4736 16.046 97.1754 15.3076 96.6358 14.6543C96.1246 14.0011 95.4713 13.4899 94.6761 13.1207C93.9092 12.723 93.0856 12.5242 92.2052 12.5242C91.3531 12.5242 90.5579 12.6378 89.8194 12.865C89.081 13.0923 88.442 13.4757 87.9023 14.0153C87.3627 14.5549 86.9367 15.2792 86.6243 16.188C86.3119 17.0969 86.1556 18.2471 86.1556 19.6388C86.1556 21.1725 86.4681 22.4789 87.0929 23.5582C87.7461 24.6091 88.5698 25.4185 89.5638 25.9865C90.5863 26.5261 91.6655 26.796 92.8016 26.796C93.8524 26.796 94.6903 26.7108 95.3151 26.5404C95.94 26.3699 96.437 26.1711 96.8062 25.9439C97.2038 25.6883 97.5588 25.4753 97.8713 25.3049C98.3825 25.0493 98.8653 24.9215 99.3197 24.9215C99.9446 24.9215 100.456 25.1345 100.853 25.5605C101.279 25.9865 101.492 26.4835 101.492 27.0516C101.492 27.8184 101.095 28.5143 100.3 29.1391C99.5611 29.7639 98.5245 30.3177 97.1896 30.8006C95.8548 31.255 94.4773 31.4822 93.0572 31.4822Z" fill="#1D1B20"/>
<path d="M74.8936 1.23456C75.5752 1.23456 76.129 1.46177 76.5551 1.91619C76.9811 2.37062 77.1941 2.93865 77.1941 3.62028V28.4574C77.1941 29.1958 76.9385 29.8206 76.4273 30.3319C75.9444 30.8147 75.3338 31.0561 74.5954 31.0561C74.2262 31.0561 73.8427 30.9993 73.4451 30.8857C73.0759 30.7437 72.7919 30.5591 72.5931 30.3319L55.8504 9.07336L56.9581 8.39173V28.6704C56.9581 29.352 56.7308 29.92 56.2764 30.3745C55.8504 30.8289 55.2824 31.0561 54.5723 31.0561C53.8907 31.0561 53.3369 30.8289 52.9108 30.3745C52.4848 29.92 52.2718 29.352 52.2718 28.6704V3.83329C52.2718 3.09485 52.5132 2.48422 52.9961 2.0014C53.5073 1.49017 54.1321 1.23456 54.8705 1.23456C55.2682 1.23456 55.68 1.31976 56.106 1.49017C56.532 1.63218 56.8444 1.85939 57.0433 2.17181L73.2747 22.8765L72.5505 23.3877V3.62028C72.5505 2.93865 72.7635 2.37062 73.1895 1.91619C73.6155 1.46177 74.1835 1.23456 74.8936 1.23456Z" fill="#1D1B20"/>
<path d="M300.907 19.9792C300.907 17.3668 301.431 15.1172 302.498 13.2498L302.921 12.5634C303.943 11.0155 305.218 9.79639 306.745 8.91612C308.483 7.91485 310.331 7.41165 312.282 7.41145C313.788 7.41145 315.212 7.72262 316.546 8.34407H316.55C317.906 8.96344 319.103 9.81924 320.135 10.9096H320.131C321.161 11.9699 321.971 13.2049 322.558 14.6124L322.776 15.1463C323.252 16.4068 323.487 17.7348 323.487 19.1264V19.1437C323.454 19.942 323.13 20.6112 322.523 21.1164C321.934 21.6072 321.242 21.8546 320.464 21.8549H306.932C307.077 22.3932 307.275 22.8855 307.532 23.3318C308.148 24.3233 308.919 25.0798 309.841 25.6096L310.573 25.9424C311.312 26.2273 312.08 26.3687 312.878 26.3689V26.7953C312.027 26.7952 311.208 26.6443 310.42 26.3411L309.64 25.9875C308.646 25.4195 307.825 24.6077 307.172 23.5572C306.806 22.9255 306.55 22.2158 306.398 21.4284H320.464L320.956 21.3868C321.277 21.3336 321.576 21.2284 321.854 21.0679L322.253 20.7905C322.764 20.3645 323.032 19.808 323.061 19.1264C323.061 17.5931 322.763 16.1451 322.166 14.7822C321.598 13.419 320.817 12.2267 319.823 11.2043C319.077 10.416 318.244 9.75381 317.323 9.22121L316.373 8.73263C315.095 8.13622 313.73 7.83789 312.282 7.83789C310.408 7.83809 308.632 8.32163 306.957 9.28708L306.343 9.66845C304.946 10.6064 303.788 11.8714 302.869 13.4613C301.847 15.2505 301.333 17.4233 301.333 19.9792C301.333 22.1661 301.804 24.1267 302.741 25.8592C303.706 27.5911 305.068 28.9696 306.828 29.9919C308.394 30.8616 310.2 31.3496 312.244 31.4584L313.135 31.4827C314.555 31.4827 315.933 31.2541 317.267 30.7997C318.602 30.3169 319.639 29.7639 320.378 29.1391C321.073 28.5924 321.466 27.9915 321.553 27.3362L321.57 27.0519C321.57 26.4841 321.358 25.9869 320.932 25.5611C320.633 25.2412 320.27 25.041 319.843 24.9613L319.396 24.9231C318.942 24.9234 318.461 25.0496 317.95 25.3045C317.638 25.4749 317.28 25.6868 316.883 25.9424C316.513 26.1695 316.016 26.3684 315.392 26.5388C314.767 26.709 313.929 26.7953 312.878 26.7953V26.3689C313.911 26.3689 314.708 26.2858 315.281 26.1297C315.884 25.9653 316.339 25.78 316.661 25.5819C317.062 25.3243 317.424 25.1057 317.746 24.9301L317.76 24.9231C318.314 24.646 318.862 24.497 319.396 24.4967C320.125 24.4967 320.75 24.7471 321.234 25.2594L321.563 25.6547C321.848 26.0677 321.996 26.5358 321.996 27.0519C321.996 27.9886 321.503 28.7975 320.641 29.4753L320.637 29.4718C319.848 30.1362 318.768 30.7118 317.413 31.2018L317.406 31.2053C316.027 31.6749 314.601 31.9091 313.135 31.9091C310.661 31.9091 308.487 31.3977 306.624 30.3628L306.617 30.3594C304.792 29.2995 303.37 27.8684 302.366 26.0672V26.0603C301.392 24.2591 300.907 22.2288 300.907 19.9792ZM312.934 12.5599C313.572 12.6345 314.179 12.8235 314.754 13.1216C315.549 13.4906 316.202 14.0011 316.713 14.654C317.252 15.3071 317.55 16.0459 317.607 16.8694V17.1675H306.45C306.467 17.0822 306.477 16.9967 306.496 16.9144L306.704 16.1864C306.938 15.5058 307.236 14.9298 307.598 14.4563L307.979 14.016C308.519 13.4766 309.158 13.0922 309.897 12.865C310.635 12.6379 311.43 12.5253 312.282 12.5252L312.934 12.5599ZM312.282 12.9517C311.468 12.9518 310.715 13.0572 310.021 13.2706C309.349 13.4777 308.771 13.828 308.281 14.3177C307.798 14.8008 307.402 15.4632 307.106 16.325C307.061 16.4565 307.026 16.5976 306.988 16.7411H317.16C317.084 16.0726 316.836 15.4682 316.387 14.9244L316.376 14.9175V14.914C315.909 14.3181 315.31 13.8484 314.574 13.5064L314.556 13.4995C313.851 13.1342 313.095 12.9517 312.282 12.9517Z" fill="#1D1B20"/>
<path d="M287.816 25.1346V13.801H286.283C285.497 13.801 284.819 13.5355 284.279 12.9967C283.74 12.4571 283.471 11.7763 283.471 10.9893C283.472 10.3211 283.679 9.73684 284.095 9.25929L284.286 9.06167C284.824 8.52784 285.5 8.26428 286.283 8.26427V8.69071L285.794 8.73231C285.325 8.81738 284.918 9.02915 284.577 9.37023C284.123 9.79596 283.898 10.3367 283.898 10.9893L283.939 11.4816C284.025 11.9495 284.237 12.3546 284.577 12.6951C285.032 13.1495 285.602 13.3746 286.283 13.3746H288.242V25.1346L288.284 26.1227C288.363 27.0544 288.564 27.818 288.883 28.4143C289.309 29.2091 289.833 29.8057 290.457 30.2033C291.111 30.5725 291.793 30.8147 292.503 30.9284C292.872 30.9709 293.223 31.0037 293.557 31.025L294.507 31.0562C295.5 31.0559 296.422 30.8005 297.273 30.29C298.043 29.8429 298.477 29.2866 298.574 28.6223L298.594 28.3311C298.594 27.6779 298.426 27.1645 298.085 26.7953C297.85 26.5179 297.591 26.3442 297.308 26.2752L297.02 26.2405C296.651 26.2405 296.323 26.3131 296.039 26.4551C295.755 26.5686 295.443 26.6252 295.103 26.6254V26.1989C295.395 26.1988 295.652 26.1511 295.88 26.0603C296.224 25.8946 296.608 25.8176 297.02 25.8176C297.57 25.818 298.037 26.0795 298.411 26.5214H298.407C298.832 26.9892 299.021 27.6105 299.021 28.3311C299.02 29.319 298.457 30.0883 297.492 30.6505L297.495 30.654C296.577 31.2047 295.577 31.4824 294.507 31.4826C293.891 31.4826 293.205 31.4375 292.454 31.3509H292.437V31.3474C291.675 31.2255 290.945 30.9672 290.249 30.5743L290.229 30.5639C289.53 30.1193 288.958 29.4609 288.505 28.6154C288.033 27.7337 287.816 26.5613 287.816 25.1346ZM293.356 24.9231V13.3746H296.379C296.89 13.3746 297.338 13.2566 297.721 13.0175L298.085 12.7367C298.425 12.3961 298.637 11.9996 298.723 11.5475L298.764 11.076C298.764 10.5651 298.638 10.1175 298.383 9.73426L298.085 9.37023C297.744 9.02994 297.339 8.81765 296.871 8.73231L296.379 8.69071V8.26427C297.166 8.26427 297.847 8.53253 298.386 9.07207C298.925 9.61139 299.191 10.2896 299.191 11.076C299.191 11.8397 298.922 12.5027 298.386 13.0383L298.376 13.0487C297.835 13.556 297.158 13.801 296.379 13.801H293.782V24.9231C293.782 25.2628 293.843 25.5063 293.935 25.6789C294.06 25.8612 294.203 25.9842 294.368 26.0603C294.6 26.1526 294.845 26.1989 295.103 26.1989V26.6254L294.645 26.5838C294.496 26.5555 294.351 26.5122 294.209 26.4555C293.953 26.3419 293.738 26.1564 293.567 25.9008C293.461 25.7095 293.396 25.4781 293.37 25.2074L293.356 24.9231ZM293.356 5.96219C293.355 5.22441 293.113 4.61411 292.631 4.13159C292.29 3.74833 291.869 3.5099 291.369 3.41397L290.842 3.36543C290.104 3.36543 289.478 3.62036 288.967 4.13159L288.651 4.51647C288.379 4.92646 288.242 5.40836 288.242 5.96219V8.69071H286.283V8.26427H287.816V5.96219C287.816 5.12162 288.096 4.3993 288.665 3.83001C289.258 3.23699 289.993 2.93899 290.842 2.93899C291.683 2.93913 292.393 3.23256 292.933 3.83001L293.134 4.05189C293.568 4.58268 293.782 5.22724 293.782 5.96219V8.26427H296.379V8.69071H293.356V5.96219Z" fill="#1D1B20"/>
<path d="M281.343 28.456V10.4381C281.343 9.86295 281.209 9.36618 280.937 8.95079L280.622 8.56249C280.139 8.07966 279.526 7.83789 278.788 7.83789C278.05 7.83804 277.44 8.09351 276.957 8.60409L276.638 8.99239C276.367 9.40208 276.232 9.88504 276.232 10.4381V10.5109C275.979 10.2717 275.696 10.0311 275.38 9.79673C274.826 9.37108 274.193 9.00128 273.48 8.6873L272.738 8.3926C271.971 8.1157 271.148 7.9417 270.269 7.87256L269.375 7.83789C267.472 7.83789 265.736 8.34784 264.174 9.37029C262.612 10.3643 261.364 11.7588 260.426 13.548C259.518 15.3086 259.064 17.3528 259.064 19.6811L259.085 20.5305C259.184 22.4882 259.631 24.2516 260.426 25.8176C261.364 27.578 262.629 28.9696 264.219 29.9919C265.611 30.8611 267.143 31.3496 268.817 31.4584L269.545 31.4827C270.354 31.4826 271.116 31.3867 271.829 31.1949L272.526 30.9695C273.463 30.6004 274.272 30.1597 274.953 29.6486C275.459 29.2693 275.887 28.8907 276.236 28.5115C276.247 29.2264 276.486 29.8329 276.957 30.3316L276.645 30.6229C276.304 30.2611 276.067 29.8488 275.934 29.3921C275.71 29.5913 275.472 29.7954 275.21 29.9919C274.493 30.5296 273.649 30.9876 272.682 31.3682H272.675C271.714 31.7288 270.669 31.909 269.545 31.9091C267.509 31.9091 265.655 31.3903 263.994 30.3524L263.987 30.349C262.332 29.285 261.021 27.8365 260.052 26.0152L260.045 26.0083C259.102 24.1513 258.638 22.0382 258.638 19.6811C258.638 17.2962 259.104 15.1813 260.049 13.3504L260.426 12.6743C261.215 11.3621 262.192 10.2778 263.353 9.4223L263.945 9.01319C265.577 7.94579 267.392 7.41145 269.375 7.41145C270.639 7.41161 271.81 7.60276 272.883 7.99044C273.94 8.37216 274.861 8.86154 275.64 9.46043H275.636C275.725 9.52607 275.808 9.59518 275.893 9.66152C276.015 9.14569 276.269 8.68854 276.655 8.30246C277.222 7.7079 277.943 7.4116 278.788 7.41145C279.628 7.41145 280.35 7.69182 280.92 8.26086C281.493 8.83371 281.769 9.57348 281.769 10.4381V28.456C281.769 29.2967 281.491 30.0285 280.93 30.6229L280.92 30.6333C280.35 31.2023 279.628 31.4827 278.788 31.4827C277.947 31.4825 277.225 31.2026 276.655 30.6333L276.645 30.6263L276.957 30.3316C277.44 30.8142 278.05 31.0561 278.788 31.0562C279.342 31.0562 279.823 30.9188 280.233 30.6471L280.622 30.3316C281.104 29.8206 281.343 29.194 281.343 28.456ZM276.017 19.6811C276.017 18.3754 275.761 17.2199 275.255 16.2072L275.251 16.2002C274.771 15.1864 274.096 14.3943 273.227 13.815C272.367 13.242 271.357 12.9517 270.183 12.9517C269.038 12.9517 268.041 13.2407 267.18 13.815C266.309 14.3956 265.619 15.1898 265.11 16.2072C264.632 17.22 264.389 18.3753 264.389 19.6811C264.389 20.9573 264.631 22.0993 265.11 23.1134L265.526 23.8345C265.976 24.514 266.527 25.0702 267.18 25.5056C268.041 26.0798 269.038 26.3689 270.183 26.3689V26.7953C269.113 26.7953 268.153 26.5566 267.301 26.0776L266.944 25.8592C266.007 25.2346 265.269 24.3828 264.729 23.3041C264.346 22.4947 264.107 21.6119 264.011 20.6588L263.963 19.6814C263.963 18.3183 264.218 17.0956 264.729 16.0165C265.269 14.9377 266.007 14.086 266.944 13.4613C267.882 12.8365 268.961 12.5252 270.183 12.5252L270.644 12.5391C271.703 12.6074 272.642 12.9148 273.462 13.4613C274.399 14.086 275.125 14.9376 275.636 16.0165C276.176 17.0956 276.444 18.318 276.444 19.6811C276.444 21.0159 276.176 22.2248 275.636 23.3041L275.435 23.6958C274.941 24.591 274.283 25.3123 273.462 25.8592L273.105 26.0776C272.251 26.5565 271.276 26.7953 270.183 26.7953V26.3689C271.357 26.3689 272.367 26.0784 273.227 25.5056C274.096 24.9262 274.771 24.1342 275.251 23.1203L275.255 23.1134C275.762 22.0993 276.017 20.9569 276.017 19.6811Z" fill="#1D1B20"/>
<path d="M255.663 29.3955V10.4381C255.663 9.86321 255.529 9.36606 255.257 8.95079L254.938 8.56249C254.577 8.20078 254.143 7.9736 253.638 7.88296L253.108 7.83789C252.369 7.83789 251.757 8.09286 251.274 8.60409C250.791 9.08685 250.553 9.69987 250.553 10.4381V10.9478C250.213 10.5596 249.803 10.1725 249.315 9.79673C248.782 9.37084 248.17 9.00139 247.477 8.6873L246.76 8.3926C246.014 8.11554 245.212 7.94171 244.354 7.87256L243.48 7.83789C241.521 7.83789 239.745 8.34839 238.155 9.37029L237.572 9.76206C236.252 10.7189 235.182 11.9823 234.362 13.548L234.032 14.2206C233.315 15.8233 232.958 17.6435 232.958 19.6811L232.978 20.5305C233.081 22.4882 233.541 24.2516 234.362 25.8176C235.299 27.578 236.578 28.9696 238.196 29.9919C239.612 30.8613 241.181 31.3495 242.901 31.4584L243.65 31.4827C244.672 31.4826 245.636 31.3101 246.545 30.9695C247.454 30.6003 248.235 30.1599 248.888 29.6486C249.57 29.1374 250.097 28.6278 250.466 28.1166C250.498 28.0734 250.523 28.0267 250.553 27.9845V30.0751L250.528 30.6263C250.416 31.8716 249.911 32.866 249.017 33.6114C247.994 34.4634 246.418 34.8907 244.288 34.8907V34.4643C246.374 34.4643 247.835 34.0452 248.746 33.2855C249.658 32.5256 250.126 31.4721 250.126 30.0751V29.1494C249.839 29.4326 249.513 29.7157 249.145 29.9919L249.142 29.9884C248.454 30.5251 247.643 30.9848 246.708 31.3648L246.697 31.3717V31.3682C245.738 31.7279 244.72 31.9091 243.65 31.9091C241.56 31.9091 239.664 31.3931 237.974 30.3559L237.967 30.3524C236.284 29.2888 234.958 27.8384 233.987 26.0152H233.984C233.011 24.1569 232.531 22.0408 232.531 19.6811C232.531 17.2959 233.01 15.1815 233.984 13.3504L234.365 12.6743C235.288 11.1443 236.473 9.92045 237.922 9.01319C239.584 7.9449 241.442 7.41145 243.48 7.41145C244.717 7.41155 245.862 7.60509 246.909 7.9939C247.938 8.37621 248.831 8.86368 249.582 9.4639H249.578C249.784 9.62252 249.978 9.78327 250.161 9.94581C250.251 9.31239 250.52 8.75792 250.976 8.30246C251.542 7.70817 252.264 7.41145 253.108 7.41145C253.949 7.41159 254.67 7.69154 255.24 8.26086C255.813 8.83371 256.089 9.57348 256.089 10.4381V29.3955C256.089 31.9207 255.535 33.986 254.391 35.5564L254.394 35.5598C253.293 37.1362 251.831 38.2707 250.019 38.954L250.015 38.9505C248.232 39.6507 246.322 40.001 244.288 40.001C243.689 40.001 242.925 39.9296 242.006 39.7861C241.088 39.6425 240.211 39.4677 239.375 39.266C238.545 39.0657 237.895 38.8758 237.44 38.694L237.43 38.6905C236.529 38.3 235.849 37.7817 235.447 37.113L235.444 37.1061C235.068 36.4575 235 35.7506 235.232 35.019C235.509 34.1259 235.978 33.4482 236.671 33.0671L236.685 33.0601C237.363 32.7212 238.081 32.6913 238.81 32.9561H238.806C239.11 33.0484 239.585 33.2226 240.224 33.4727C240.86 33.7214 241.556 33.9433 242.308 34.1384H242.319C243.089 34.3585 243.743 34.4642 244.288 34.4643V34.8907L243.823 34.8699C243.338 34.8273 242.797 34.7214 242.201 34.5509C241.817 34.4516 241.449 34.342 241.095 34.2285L240.072 33.8679C239.419 33.6123 238.948 33.4435 238.664 33.3583C238.04 33.1311 237.443 33.1575 236.875 33.4415C236.307 33.7539 235.897 34.3236 235.641 35.1473C235.443 35.7714 235.499 36.352 235.811 36.8911C236.152 37.4592 236.748 37.9293 237.6 38.2986C238.026 38.469 238.652 38.6547 239.476 38.8535C240.299 39.0521 241.164 39.2212 242.072 39.3631C242.527 39.4342 242.94 39.4871 243.31 39.5226L244.288 39.578C246.276 39.578 248.137 39.2369 249.87 38.5553C251.602 37.9022 252.993 36.822 254.044 35.3171C254.988 34.0246 255.521 32.3508 255.639 30.297L255.663 29.3955ZM250.338 19.6811C250.338 18.3754 250.081 17.2199 249.575 16.2072C249.068 15.1926 248.362 14.3998 247.464 13.8184C246.576 13.2447 245.523 12.9517 244.288 12.9517C243.083 12.9518 242.043 13.2432 241.154 13.8184C240.255 14.3997 239.553 15.1929 239.046 16.2072C238.539 17.2199 238.283 18.3754 238.283 19.6811C238.283 20.9569 238.539 22.0993 239.046 23.1134C239.553 24.1276 240.255 24.9209 241.154 25.5021C242.043 26.0774 243.083 26.3688 244.288 26.3689V26.7953C243.17 26.7952 242.171 26.5561 241.292 26.0776L240.921 25.8592C240.076 25.3123 239.394 24.5908 238.876 23.6958L238.664 23.3041C238.26 22.4946 238.006 21.612 237.905 20.6588L237.857 19.6811C237.857 18.318 238.125 17.0956 238.664 16.0165C239.204 14.9379 239.956 14.086 240.921 13.4613C241.887 12.8366 243.01 12.5254 244.288 12.5252L244.77 12.5391C245.876 12.6073 246.851 12.9148 247.696 13.4613C248.661 14.0861 249.417 14.9373 249.956 16.0165C250.496 17.0956 250.764 18.3183 250.764 19.6814L250.712 20.6588C250.611 21.6119 250.361 22.4947 249.956 23.3041L249.741 23.6958C249.223 24.5906 248.541 25.3124 247.696 25.8592L247.325 26.0776C246.443 26.5557 245.43 26.7953 244.288 26.7953V26.3689C245.523 26.3689 246.576 26.0758 247.464 25.5021C248.362 24.9208 249.068 24.1278 249.575 23.1134C250.082 22.0993 250.338 20.9569 250.338 19.6811Z" fill="#1D1B20"/>
<path d="M229.619 28.456V10.8611C229.619 10.1234 229.377 9.51295 228.894 9.03049C228.533 8.64773 228.099 8.4088 227.594 8.31283L227.063 8.26406C226.325 8.26406 225.713 8.51927 225.23 9.03049C224.748 9.51286 224.509 10.1237 224.509 10.8611V28.456L224.554 28.9899C224.644 29.5006 224.868 29.9484 225.23 30.3316L224.921 30.6228C224.36 30.0284 224.082 29.2967 224.082 28.456V10.8611C224.083 10.0205 224.362 9.29811 224.932 8.72887C225.498 8.13443 226.219 7.83785 227.064 7.83785C227.908 7.838 228.63 8.13416 229.196 8.72887C229.765 9.29811 230.045 10.0205 230.045 10.8611V28.456C230.045 29.2964 229.767 30.0285 229.206 30.6228L229.196 30.6332C228.626 31.2026 227.905 31.4825 227.064 31.4826C226.223 31.4826 225.501 31.2023 224.932 30.6332L224.921 30.6263L225.23 30.3316C225.592 30.6937 226.027 30.9206 226.533 31.0111L227.063 31.0562C227.802 31.0561 228.412 30.8142 228.894 30.3316C229.377 29.8204 229.619 29.1944 229.619 28.456ZM229.747 2.55418C229.747 1.85841 229.594 1.34774 229.29 1.02178L229.151 0.893876C228.853 0.659672 228.387 0.511822 227.754 0.453197L227.063 0.425251C226.155 0.425251 225.473 0.581459 225.019 0.893876L224.869 1.01138C224.542 1.31863 224.38 1.83323 224.38 2.55418V3.36546L224.415 3.91671C224.49 4.42233 224.679 4.79191 224.977 5.02614C225.275 5.2602 225.732 5.40791 226.35 5.46644L227.022 5.49418C227.746 5.49406 228.318 5.4147 228.738 5.25496L229.109 5.06774C229.428 4.83331 229.626 4.45534 229.706 3.93404L229.747 3.36546V2.55418ZM230.174 3.36546C230.174 4.2468 229.945 4.98149 229.359 5.41097L229.345 5.42484C228.811 5.781 228.008 5.92046 227.022 5.92062C226.036 5.92062 225.229 5.76692 224.713 5.36243C224.165 4.93206 223.954 4.21565 223.954 3.36546V2.55418C223.954 1.68073 224.177 0.946237 224.776 0.543339L224.997 0.408127C225.534 0.120922 226.238 -0.000976562 227.064 -0.000976562C228.074 -0.000914845 228.897 0.151365 229.414 0.557206C229.962 0.987509 230.173 1.70418 230.174 2.55418V3.36546Z" fill="#1D1B20"/>
<path d="M199.817 10.5213C199.817 9.87286 200.109 9.27646 200.615 8.73926C201.159 8.13124 201.889 7.83803 202.757 7.83785C203.369 7.83785 203.938 8.0004 204.456 8.31976H204.459C205.004 8.62655 205.4 9.10117 205.659 9.71348H205.662L211.154 22.2709L216.594 9.75856C216.856 9.14211 217.208 8.65135 217.665 8.32323C218.123 7.99492 218.658 7.85449 219.246 7.88292V7.87945C220.045 7.87968 220.724 8.13851 221.24 8.67686C221.785 9.18773 222.058 9.84343 222.058 10.608C222.058 10.8521 222.001 11.0976 221.912 11.3464L221.916 11.3499C221.854 11.5972 221.775 11.8325 221.68 12.0537L221.676 12.0606L213.713 29.6139L213.709 29.6105C213.46 30.1721 213.126 30.6296 212.694 30.9522C212.258 31.2764 211.746 31.45 211.175 31.4826L211.172 31.4757C210.547 31.5644 209.943 31.448 209.369 31.129L209.358 31.1255C208.787 30.7894 208.364 30.2738 208.079 29.6105V29.6139L200.153 12.0606L200.147 12.0433C200.088 11.8975 200.017 11.7097 199.932 11.4816L199.914 11.4366L200.33 11.3326C200.415 11.5584 200.485 11.7423 200.542 11.8838L208.467 29.4371C208.723 30.0332 209.091 30.474 209.573 30.758C210.084 31.042 210.611 31.1415 211.151 31.0563C212.145 30.9994 212.87 30.4595 213.325 29.4371L221.292 11.8838C221.334 11.7848 221.371 11.6814 221.406 11.5752L221.6 10.9165L221.631 10.608C221.631 9.95473 221.403 9.41491 220.948 8.98889C220.629 8.64832 220.231 8.43282 219.752 8.3475L219.246 8.30589C218.224 8.24909 217.468 8.78891 216.986 9.92497L211.154 23.3318L205.271 9.88337C205.1 9.47837 204.865 9.15417 204.567 8.90915L204.248 8.69073C203.908 8.47813 203.544 8.34537 203.156 8.29202L202.757 8.26429C201.991 8.26447 201.381 8.51975 200.927 9.03049L200.628 9.39452C200.372 9.76209 200.244 10.1377 200.244 10.5213C200.244 10.8337 200.273 11.1054 200.33 11.3326L199.918 11.4331C199.85 11.1633 199.817 10.8573 199.817 10.5213Z" fill="#1D1B20"/>
<path d="M197.553 28.456V10.4381C197.553 9.86292 197.416 9.36619 197.144 8.95079L196.829 8.56249C196.346 8.07966 195.733 7.83789 194.995 7.83789C194.257 7.83807 193.647 8.0935 193.164 8.60409L192.845 8.99239C192.574 9.40206 192.439 9.88506 192.439 10.4381V10.5109C192.186 10.2717 191.903 10.0311 191.587 9.79673C191.033 9.37108 190.4 9.00128 189.687 8.6873L188.945 8.3926C188.178 8.11571 187.355 7.94169 186.476 7.87256L185.582 7.83789C183.679 7.83789 181.943 8.34784 180.381 9.37029C178.819 10.3643 177.571 11.7589 176.634 13.548C175.725 15.3085 175.271 17.3528 175.271 19.6811L175.292 20.5305C175.391 22.4882 175.838 24.2515 176.634 25.8176C177.571 27.578 178.836 28.9696 180.426 29.9919C181.818 30.8611 183.35 31.3496 185.024 31.4584L185.752 31.4827C186.561 31.4826 187.323 31.3867 188.036 31.1949L188.733 30.9695C189.67 30.6004 190.479 30.1597 191.16 29.6486C191.666 29.2694 192.094 28.8907 192.443 28.5115C192.454 29.2264 192.693 29.8329 193.164 30.3316C193.647 30.8142 194.257 31.0561 194.995 31.0562C195.733 31.0562 196.346 30.8144 196.829 30.3316L197.127 30.6333C196.557 31.2023 195.835 31.4827 194.995 31.4827C194.154 31.4825 193.432 31.2026 192.862 30.6333L192.852 30.6263L192.855 30.6229C192.514 30.2607 192.274 29.8496 192.141 29.3921C191.917 29.5913 191.679 29.7955 191.417 29.9919C190.7 30.5296 189.856 30.9876 188.889 31.3682H188.882C187.921 31.7288 186.876 31.909 185.752 31.9091C183.716 31.9091 181.862 31.3903 180.201 30.3524L180.194 30.349C178.539 29.285 177.228 27.8364 176.259 26.0152L176.256 26.0083C175.312 24.151 174.845 22.0388 174.845 19.6811C174.845 17.2962 175.311 15.1813 176.256 13.3504L176.634 12.6743C177.422 11.3621 178.399 10.2779 179.56 9.4223L180.152 9.01319C181.785 7.94575 183.599 7.41145 185.582 7.41145C186.846 7.4116 188.017 7.60278 189.09 7.99044C190.147 8.37215 191.068 8.86155 191.847 9.46043H191.843C191.932 9.52607 192.015 9.59518 192.1 9.66152C192.2 9.241 192.387 8.85992 192.661 8.52435L192.862 8.30246C193.429 7.70789 194.15 7.41163 194.995 7.41145C195.835 7.41145 196.557 7.69186 197.127 8.26086C197.7 8.83371 197.976 9.57348 197.976 10.4381V28.456C197.976 29.2967 197.698 30.0284 197.137 30.6229L197.13 30.6333L196.829 30.3316C197.19 29.9484 197.414 29.5007 197.505 28.9899L197.553 28.456ZM192.228 19.6811C192.228 18.3754 191.968 17.2199 191.462 16.2072L191.458 16.2002C190.978 15.1864 190.303 14.3943 189.434 13.815C188.574 13.2421 187.564 12.9517 186.39 12.9517C185.245 12.9517 184.249 13.2407 183.387 13.815C182.516 14.3956 181.826 15.1898 181.317 16.2072C180.839 17.22 180.596 18.3753 180.596 19.6811C180.596 20.9573 180.838 22.0993 181.317 23.1134L181.733 23.8345C182.183 24.514 182.734 25.0702 183.387 25.5056C184.249 26.0798 185.245 26.3688 186.39 26.3689V26.7953C185.32 26.7953 184.36 26.5566 183.509 26.0776L183.151 25.8592C182.215 25.2346 181.476 24.3828 180.936 23.3041C180.553 22.4947 180.314 21.6119 180.218 20.6588L180.17 19.6814C180.17 18.3183 180.425 17.0956 180.936 16.0165C181.476 14.9377 182.215 14.086 183.151 13.4613C184.089 12.8365 185.168 12.5253 186.39 12.5252L186.851 12.5391C187.91 12.6074 188.849 12.9148 189.669 13.4613C190.606 14.086 191.332 14.9376 191.843 16.0165C192.383 17.0956 192.651 18.318 192.651 19.6811C192.651 21.0159 192.383 22.2248 191.843 23.3041L191.642 23.6958C191.148 24.591 190.49 25.3123 189.669 25.8592L189.312 26.0776C188.458 26.5564 187.483 26.7953 186.39 26.7953V26.3689C187.564 26.3689 188.574 26.0784 189.434 25.5056C190.303 24.9262 190.978 24.1342 191.458 23.1203L191.462 23.1134L191.795 22.3264C192.081 21.5182 192.228 20.6376 192.228 19.6811Z" fill="#1D1B20"/>
<path d="M171.208 3.62198C171.208 3.11058 171.09 2.66029 170.851 2.27679L170.569 1.91625C170.25 1.57533 169.858 1.36345 169.394 1.2783L168.909 1.23323C168.199 1.23323 167.629 1.4618 167.203 1.91622C166.777 2.37061 166.565 2.94044 166.565 3.62198V21.9519L151.058 2.17278C150.859 1.86061 150.547 1.63182 150.122 1.48979C149.695 1.31938 149.281 1.23323 148.884 1.23323C148.146 1.23346 147.523 1.4919 147.012 2.0029L146.693 2.38773C146.421 2.79767 146.287 3.27986 146.287 3.83346V28.6709L146.325 29.1597C146.405 29.6283 146.606 30.0323 146.925 30.3732C147.351 30.8274 147.904 31.0559 148.586 31.0562C149.296 31.0562 149.865 30.8276 150.291 30.3732C150.632 30.0324 150.844 29.6281 150.929 29.1597L150.971 28.6709V10.4762L166.607 30.3316C166.806 30.5588 167.091 30.7443 167.46 30.8863C167.659 30.9431 167.854 30.9862 168.046 31.0145L168.611 31.0562C169.349 31.0559 169.959 30.8145 170.442 30.3319C170.953 29.8207 171.208 29.1943 171.208 28.4559V3.62198ZM171.634 28.4559C171.634 29.3046 171.336 30.0402 170.743 30.6332C170.174 31.2025 169.452 31.4823 168.611 31.4826C168.198 31.4826 167.773 31.4186 167.342 31.2954L167.307 31.285C166.893 31.1257 166.544 30.905 166.288 30.6124L166.271 30.595V30.5916L151.397 11.707V28.6709C151.397 29.4572 151.132 30.1355 150.593 30.6748L150.59 30.6713C150.072 31.218 149.391 31.4826 148.586 31.4826C147.799 31.4824 147.127 31.2131 146.613 30.6644C146.107 30.1236 145.861 29.4487 145.861 28.6709V3.83346C145.861 2.99222 146.14 2.27089 146.71 1.70127C147.303 1.10849 148.036 0.810492 148.884 0.810259C149.343 0.810259 149.809 0.9073 150.278 1.09455H150.274C150.749 1.25648 151.132 1.52274 151.39 1.90929H151.394L166.139 20.7176V3.62198C166.139 2.84366 166.385 2.16599 166.891 1.625C167.409 1.0723 168.099 0.810259 168.909 0.810259C169.696 0.810536 170.367 1.07634 170.882 1.625C171.389 2.16599 171.634 2.84365 171.634 3.62198V28.4559Z" fill="#1D1B20"/>
<path d="M128.089 25.1346V13.801H126.553C125.767 13.8009 125.088 13.5355 124.549 12.9967C124.01 12.4571 123.741 11.7763 123.741 10.9893C123.742 10.2253 124.015 9.57227 124.56 9.06167C125.097 8.52894 125.771 8.2644 126.553 8.26427V8.69071L126.064 8.73231C125.596 8.81734 125.191 9.03005 124.851 9.37023L124.553 9.71346C124.297 10.0753 124.168 10.4999 124.168 10.9893C124.168 11.6709 124.396 12.2406 124.851 12.6951C125.305 13.1488 125.872 13.3745 126.553 13.3746H128.512V25.1346L128.553 26.1227C128.633 27.0544 128.834 27.818 129.153 28.4143C129.579 29.209 130.103 29.8057 130.727 30.2033C131.38 30.5724 132.063 30.8142 132.773 30.9279C133.142 30.9704 133.493 31.0037 133.827 31.025L134.777 31.0562C135.77 31.056 136.692 30.8004 137.543 30.29C138.313 29.8429 138.747 29.2865 138.843 28.6223L138.864 28.3311C138.864 27.6779 138.695 27.1645 138.355 26.7953C138.12 26.5179 137.861 26.3441 137.578 26.2752L137.29 26.2405C136.921 26.2405 136.593 26.3135 136.309 26.4555C136.025 26.5689 135.713 26.6253 135.373 26.6254V26.1989C135.519 26.1989 135.656 26.1877 135.786 26.1643L136.15 26.0603C136.494 25.8944 136.878 25.8176 137.29 25.8176C137.84 25.8178 138.307 26.0794 138.681 26.5214H138.677C139.102 26.9892 139.291 27.6104 139.291 28.3311C139.29 29.3191 138.727 30.0883 137.762 30.6505L137.765 30.654C136.847 31.2048 135.848 31.4825 134.777 31.4826C134.161 31.4826 133.475 31.4375 132.724 31.3509H132.707V31.3474C131.945 31.2254 131.215 30.9673 130.519 30.5743L130.498 30.5639C129.8 30.1193 129.228 29.4608 128.775 28.6154C128.303 27.7338 128.089 26.5611 128.089 25.1346ZM133.626 24.9231V13.3746H136.649C137.159 13.3746 137.608 13.2565 137.991 13.0175L138.355 12.7367C138.695 12.3961 138.907 11.9997 138.993 11.5475L139.038 11.076C139.038 10.5649 138.908 10.1176 138.653 9.73426L138.355 9.37023C138.014 9.02997 137.609 8.81756 137.141 8.73231L136.649 8.69071V8.26427C137.436 8.26427 138.117 8.53253 138.656 9.07207C139.195 9.61143 139.461 10.2895 139.461 11.076C139.461 11.8398 139.192 12.5026 138.656 13.0383L138.646 13.0487C138.105 13.5558 137.427 13.801 136.649 13.801H134.052V24.9231C134.052 25.2626 134.113 25.5063 134.205 25.6789C134.331 25.8633 134.478 25.9844 134.645 26.0603C134.875 26.1512 135.117 26.1989 135.373 26.1989V26.6254L134.915 26.5838C134.766 26.5554 134.621 26.5123 134.479 26.4555C134.223 26.3419 134.008 26.1564 133.837 25.9008C133.731 25.7095 133.666 25.478 133.64 25.2074L133.626 24.9231ZM133.626 5.96219C133.625 5.22433 133.384 4.61414 132.901 4.13159C132.561 3.74825 132.14 3.50982 131.639 3.41397L131.112 3.36543C130.374 3.36543 129.748 3.62041 129.236 4.13163L128.921 4.51647C128.649 4.9264 128.512 5.40847 128.512 5.96219V8.69071H126.553V8.26427H128.089V5.96219C128.089 5.12176 128.366 4.39926 128.935 3.83001C129.528 3.23699 130.263 2.93899 131.112 2.93899C131.953 2.939 132.663 3.23261 133.203 3.83001L133.404 4.05189C133.838 4.58273 134.052 5.22712 134.052 5.96219V8.26427H136.649V8.69071H133.626V5.96219Z" fill="#1D1B20"/>
<path d="M110.688 14.3561C110.688 13.8234 110.792 13.4027 111 13.0938L111.243 12.8234C111.612 12.4829 112.036 12.2673 112.519 12.182C113.03 12.0684 113.5 12.0121 113.926 12.0121L114.689 12.0468C115.429 12.1159 116.097 12.2902 116.693 12.5668C117.517 12.9361 118.172 13.4328 118.655 14.0576C119.024 14.3981 119.492 14.5971 120.059 14.654C120.485 14.6752 120.872 14.5937 121.217 14.4078L121.55 14.1859C122.072 13.7637 122.343 13.2978 122.365 12.7887L122.361 12.5668C122.319 12.1192 122.205 11.7189 122.018 11.3673L121.807 11.0344C121.21 10.2676 120.472 9.65483 119.591 9.20041C118.711 8.71772 117.787 8.37642 116.821 8.17765C116.097 8.00731 115.397 7.90121 114.72 7.85869L114.055 7.83789C112.663 7.83789 111.328 8.10975 110.05 8.64916L109.589 8.86065C108.546 9.38235 107.677 10.0785 106.982 10.9478L106.701 11.3291C106.092 12.2457 105.789 13.3278 105.789 14.5708L105.834 15.4652C105.925 16.3231 106.152 17.0626 106.514 17.6806C106.996 18.5032 107.62 19.1703 108.386 19.6811C109.153 20.1637 109.991 20.5614 110.9 20.8737C111.837 21.1861 112.748 21.471 113.628 21.7266C114.48 21.9537 115.246 22.1958 115.927 22.4512C116.637 22.7068 117.207 23.0181 117.633 23.3873C118.058 23.7563 118.27 24.2537 118.27 24.8781C118.27 25.6161 118.071 26.1695 117.674 26.5388C117.305 26.8796 116.864 27.1081 116.353 27.2217C115.843 27.3068 115.375 27.3632 114.949 27.3916L113.968 27.35C113.187 27.279 112.495 27.12 111.891 26.8716L111.541 26.7121C110.86 26.3715 110.202 25.9253 109.568 25.3773L108.941 24.7949C108.579 24.433 108.209 24.1977 107.831 24.0911L107.45 24.0252C106.939 23.9684 106.455 24.0844 106.001 24.3684C105.291 24.8228 104.923 25.3629 104.895 25.9875L104.902 26.4347C104.939 26.8601 105.064 27.222 105.276 27.5199C106.384 28.9963 107.776 30.0333 109.45 30.6298C110.707 31.0558 111.966 31.3242 113.223 31.4307L114.478 31.4827C115.479 31.4827 116.466 31.337 117.435 31.0493L118.399 30.7165C119.518 30.2441 120.474 29.5861 121.266 28.7437L121.595 28.3728C122.34 27.4786 122.757 26.4205 122.85 25.2005L122.871 24.6666C122.871 23.5731 122.699 22.6524 122.351 21.9069L122.192 21.5983C121.851 20.9812 121.43 20.4522 120.93 20.0104L120.403 19.5979C119.664 19.0866 118.853 18.6726 117.972 18.3602C117.532 18.2039 117.095 18.0583 116.662 17.9233L115.376 17.5524L113.032 16.8694C112.322 16.6138 111.752 16.3025 111.326 15.9333C111.007 15.6354 110.806 15.2652 110.726 14.8238L110.688 14.3561ZM111.115 14.3558C111.115 14.9008 111.285 15.3051 111.607 15.6108L111.915 15.8466C112.251 16.0764 112.668 16.2848 113.174 16.4672H113.171C113.9 16.6915 114.672 16.9151 115.486 17.1398H115.483C116.346 17.37 117.224 17.6421 118.114 17.958C119.028 18.2822 119.872 18.7114 120.642 19.2442C121.435 19.7934 122.075 20.5113 122.559 21.3868C123.061 22.2657 123.298 23.3687 123.298 24.6666C123.297 26.205 122.843 27.5409 121.921 28.6467C121.024 29.723 119.902 30.5435 118.565 31.1082L118.558 31.1117C117.231 31.6424 115.868 31.9091 114.478 31.9091C112.753 31.9089 111.032 31.6139 109.315 31.032H109.308C107.551 30.4064 106.092 29.3172 104.936 27.7765L104.93 27.7695C104.576 27.2748 104.437 26.6598 104.468 25.9667C104.505 25.1586 104.99 24.5084 105.772 24.0079H105.775C106.308 23.6753 106.888 23.5344 107.499 23.6022L107.495 23.6057C108.133 23.6476 108.717 23.9674 109.242 24.4932C110.038 25.2889 110.87 25.8996 111.732 26.3307C112.356 26.6427 113.112 26.8457 114.006 26.9271L114.949 26.9652C115.343 26.9378 115.779 26.8846 116.256 26.8057C116.697 26.7078 117.072 26.5138 117.383 26.2267C117.666 25.964 117.844 25.5424 117.844 24.8781C117.844 24.3622 117.673 23.9885 117.352 23.7097C116.976 23.3846 116.46 23.0932 115.785 22.8499H115.778C115.112 22.6001 114.358 22.3635 113.517 22.1392L113.507 22.1357C112.621 21.8785 111.706 21.5932 110.764 21.2794L110.761 21.2759C109.824 20.9536 108.956 20.5426 108.161 20.0416L108.15 20.0347C107.329 19.4867 106.66 18.7719 106.146 17.8956C105.615 16.9898 105.363 15.8727 105.363 14.5708C105.363 13.0658 105.786 11.7592 106.649 10.6808C107.491 9.62902 108.572 8.82252 109.88 8.25739L109.884 8.25393C111.214 7.69241 112.607 7.41145 114.055 7.41145C114.967 7.41157 115.917 7.5303 116.904 7.76161H116.908C117.911 7.96815 118.869 8.32346 119.782 8.82251H119.786C120.72 9.30459 121.508 9.95457 122.143 10.7709L122.15 10.7814C122.513 11.277 122.721 11.8633 122.784 12.5252C122.859 13.3029 122.492 13.9712 121.821 14.5153L121.817 14.5188C121.306 14.9274 120.706 15.1138 120.039 15.0804H120.018V15.0769C119.371 15.0122 118.81 14.7816 118.364 14.3697L118.34 14.3454L118.316 14.3177C117.881 13.7564 117.288 13.2996 116.52 12.9551L116.516 12.9517C115.787 12.6133 114.927 12.4387 113.926 12.4386C113.538 12.4386 113.1 12.4898 112.612 12.598L112.595 12.605V12.6015C112.195 12.6722 111.841 12.8486 111.531 13.1354L111.517 13.1493C111.282 13.3488 111.115 13.7119 111.115 14.3558Z" fill="#1D1B20"/>
<path d="M102.985 19.1264L103.407 19.1437C103.374 19.9419 103.053 20.6113 102.447 21.1164C101.857 21.6079 101.163 21.8549 100.384 21.8549H86.8561C87.0006 22.3934 87.199 22.8854 87.4559 23.3318L87.9482 24.0356C88.4695 24.6922 89.0778 25.2158 89.7719 25.6131C90.7315 26.1179 91.7397 26.3689 92.802 26.3689V26.7953L91.9595 26.7468C91.4057 26.6793 90.8659 26.5435 90.3405 26.3411L89.5639 25.9875C88.5698 25.4195 87.7451 24.608 87.0919 23.5572C86.7264 22.9255 86.4703 22.2156 86.3188 21.4284H100.384L100.88 21.3868C101.2 21.3335 101.498 21.2277 101.775 21.0679L102.173 20.7905C102.684 20.3645 102.956 19.808 102.985 19.1264C102.984 17.5934 102.686 16.145 102.09 14.7822C101.522 13.4193 100.74 12.2266 99.7464 11.2043C98.7523 10.1535 97.5997 9.3288 96.2933 8.73237C95.175 8.21073 93.9917 7.91686 92.7431 7.85176L92.2057 7.83789C90.3313 7.83789 88.556 8.32156 86.8804 9.28708L86.2668 9.66845C84.8686 10.6066 83.709 11.8706 82.7894 13.4613C81.767 15.2505 81.257 17.4233 81.257 19.9792L81.2778 20.7905C81.3804 22.6538 81.8412 24.3437 82.6611 25.8592C83.6268 27.5917 84.9912 28.9694 86.7521 29.9919C88.318 30.8616 90.1233 31.3498 92.1675 31.4584L93.0586 31.4827C94.4777 31.4825 95.8537 31.2537 97.1877 30.7997C98.522 30.317 99.5592 29.7635 100.298 29.139C100.993 28.5924 101.386 27.9915 101.473 27.3362L101.494 27.0519C101.494 26.4838 101.278 25.9871 100.852 25.5611C100.554 25.2417 100.193 25.0412 99.7672 24.9613L99.3199 24.9231C98.8655 24.9231 98.382 25.0489 97.8707 25.3045C97.5586 25.4748 97.2036 25.6871 96.8064 25.9424L96.5047 26.1088C96.1802 26.2684 95.7836 26.411 95.3156 26.5388L94.8059 26.6532C94.2577 26.7489 93.5896 26.7953 92.802 26.7953V26.3689C93.8341 26.3688 94.6286 26.2856 95.2012 26.1297C95.8032 25.9655 96.259 25.7797 96.581 25.5819C96.9823 25.324 97.344 25.1058 97.6662 24.9301L97.68 24.9231C98.2356 24.6454 98.7845 24.4967 99.3199 24.4967C100.048 24.4968 100.671 24.7478 101.154 25.2594L101.483 25.6547C101.769 26.0678 101.917 26.5355 101.917 27.0519C101.917 27.9843 101.427 28.7856 100.572 29.4614C99.7809 30.1303 98.6954 30.7092 97.3333 31.2018L97.3264 31.2053C95.9477 31.6746 94.5242 31.9089 93.0586 31.9091C90.5851 31.9091 88.4072 31.3979 86.5441 30.3628L86.5372 30.3594C84.7125 29.2997 83.294 27.8678 82.2901 26.0672L81.9434 25.3738C81.1987 23.7481 80.8305 21.9471 80.8305 19.9792C80.8306 17.367 81.3515 15.1171 82.4184 13.2498H82.4219C83.5068 11.3733 84.9197 9.92227 86.6655 8.91612C88.4037 7.91442 90.2541 7.41145 92.2057 7.41145C93.7115 7.41156 95.1331 7.72312 96.4666 8.34407H96.4701C97.825 8.96263 99.0209 9.81779 100.051 10.9062L100.783 11.7348C101.473 12.596 102.038 13.5561 102.478 14.6124L102.697 15.1463C103.172 16.4069 103.411 17.7346 103.411 19.1264V19.1437L102.985 19.1264ZM92.854 12.5599C93.493 12.6344 94.0991 12.8235 94.6742 13.1216C95.4694 13.4908 96.1253 14.0007 96.6365 14.654C97.1759 15.3071 97.4741 16.0459 97.531 16.8694V17.1675H86.3742C86.4433 16.8153 86.5208 16.4861 86.6239 16.1864C86.8579 15.5059 87.1569 14.9297 87.5183 14.4563L87.9032 14.016C88.3075 13.6117 88.7671 13.295 89.283 13.0661L89.8204 12.865C90.5585 12.638 91.3541 12.5252 92.2057 12.5252L92.854 12.5599ZM92.2057 12.9517C91.3922 12.9517 90.6388 13.0574 89.9452 13.2706C89.2724 13.4777 88.6946 13.8279 88.2048 14.3177C87.7215 14.801 87.3227 15.4625 87.026 16.325C86.9809 16.4563 86.9501 16.5978 86.9116 16.7411H97.0803C97.0046 16.0726 96.7563 15.4681 96.3071 14.9244L96.3002 14.9175C95.8329 14.3204 95.2349 13.8489 94.4974 13.5064L94.48 13.4995C93.7752 13.134 93.019 12.9518 92.2057 12.9517Z" fill="#1D1B20"/>
<path d="M77.1937 3.62194C77.1937 3.10993 77.0735 2.66056 76.8332 2.27675L76.5558 1.91618C76.2363 1.57535 75.8438 1.36346 75.3805 1.27826L74.8951 1.23319C74.1851 1.23319 73.6155 1.46177 73.1895 1.91619C72.7635 2.37062 72.5515 2.9403 72.5515 3.62194V21.9518L57.0437 2.17274C56.8451 1.86066 56.5329 1.63178 56.1076 1.48975C55.6816 1.31934 55.2675 1.23319 54.8699 1.23319C54.1317 1.23332 53.5053 1.49177 52.9942 2.00286L52.6788 2.38769C52.4073 2.79767 52.2731 3.27973 52.2731 3.83342V28.6708L52.3113 29.1597C52.391 29.6283 52.5917 30.0323 52.911 30.3731C53.337 30.8274 53.8903 31.056 54.5717 31.0561C55.2818 31.0561 55.8515 30.8275 56.2775 30.3731C56.6177 30.0324 56.8304 29.628 56.9154 29.1597L56.957 28.6708V10.4761L72.5931 30.3319C72.7919 30.5591 73.0767 30.7442 73.4459 30.8862C73.6448 30.943 73.8401 30.9862 74.0319 31.0145L74.597 31.0561C75.151 31.0558 75.6327 30.9192 76.0427 30.647L76.4273 30.3319C76.9382 29.8207 77.1937 29.1941 77.1937 28.4559V3.62194ZM77.6202 28.4559C77.6202 29.3044 77.3219 30.0402 76.7292 30.6331C76.1599 31.2024 75.4375 31.4822 74.597 31.4826C74.1838 31.4826 73.7592 31.4185 73.3281 31.2953L73.2899 31.2849V31.2815C72.8766 31.1221 72.5264 30.9047 72.2706 30.6123L72.2568 30.595L57.3834 11.7069V28.6708C57.3833 29.4571 57.1177 30.1355 56.5791 30.6747L56.5756 30.6713C56.0584 31.2181 55.3772 31.4826 54.5717 31.4826C53.7849 31.4824 53.1135 31.2132 52.599 30.6643C52.0926 30.1235 51.8468 29.4488 51.8467 28.6708V3.83342C51.8467 2.99216 52.1265 2.27086 52.6961 1.70123C53.2889 1.10845 54.0215 0.810356 54.8699 0.810219C55.3292 0.810219 55.7951 0.907168 56.2636 1.09451H56.2601C56.7348 1.25648 57.118 1.5227 57.3765 1.90925H57.38L72.125 20.7176V3.62194C72.125 2.84352 72.3705 2.16598 72.8774 1.62496C73.3955 1.07226 74.0854 0.810219 74.8951 0.810219C75.6812 0.81059 76.3502 1.07683 76.8644 1.62496C77.3717 2.1661 77.6202 2.84319 77.6202 3.62194V28.4559Z" fill="#1D1B20"/>
</svg>
