<svg width="122" height="116" viewBox="0 0 122 116" fill="none" xmlns="http://www.w3.org/2000/svg">
<path d="M29.2589 103.8C28.8888 103.621 28.5694 103.332 28.3827 102.958C28.1958 102.584 28.1554 102.161 28.2733 101.772C28.3911 101.383 28.6595 101.053 29.0223 100.846C29.3852 100.638 29.8113 100.575 30.2186 100.631C31.3169 100.771 32.4917 100.886 33.6158 100.968C43.9395 101.628 54.3394 101.433 64.6311 101.329C74.9489 101.168 85.241 100.931 95.6996 100.139C96.8594 100.05 98.0289 99.9506 99.1931 99.8438C99.6024 99.8057 100.025 99.8879 100.379 100.111C100.732 100.335 100.985 100.676 101.086 101.07C101.186 101.464 101.127 101.885 100.924 102.25C100.72 102.616 100.388 102.89 100.011 103.053C98.9042 103.525 97.7777 103.973 96.6493 104.394C86.4524 108.187 75.5784 109.997 64.7571 110.159C53.9455 110.269 43.0389 108.94 32.6655 105.223C31.5361 104.801 30.3567 104.325 29.2589 103.8Z" fill="#D3DCFF"/>
<path d="M111.327 97.0369C111.62 96.749 111.83 96.3745 111.889 95.9616C111.948 95.549 111.854 95.1358 111.62 94.8047C111.387 94.4736 111.029 94.2456 110.621 94.1626C110.212 94.0794 109.789 94.152 109.419 94.3303C108.445 94.7927 107.409 95.2692 106.421 95.6969C97.3244 99.618 88.0664 102.606 78.7457 105.042C69.4032 107.457 59.9265 109.241 50.0184 110.131C48.9105 110.229 47.8175 110.317 46.6954 110.392C46.2862 110.419 45.882 110.564 45.5675 110.838C45.2531 111.112 45.0547 111.487 45.0149 111.89C44.9752 112.293 45.0966 112.699 45.3516 113.029C45.6065 113.359 45.9744 113.581 46.3705 113.687C47.4977 113.983 48.6104 114.247 49.752 114.483C59.9659 116.613 70.7858 116.237 80.96 113.591C91.1272 110.943 100.74 106.15 108.748 99.3841C109.614 98.6419 110.513 97.8367 111.327 97.0369Z" fill="#D3DCFF"/>
<path d="M106.726 78.4978C106.954 78.0712 107.066 77.5771 106.996 77.0901C106.926 76.6034 106.684 76.1675 106.312 75.8697C105.94 75.5719 105.462 75.4308 104.972 75.4687C104.481 75.5064 104.024 75.7239 103.657 76.0393C102.77 76.7968 101.882 77.5207 100.979 78.2282C92.8629 84.5783 84.1033 88.9577 74.8357 91.9109C65.5624 94.8551 55.7342 96.412 45.3348 96.7475C44.1764 96.7836 43.0184 96.8051 41.8446 96.8095C41.361 96.8102 40.8724 96.9444 40.4763 97.2363C40.0803 97.5279 39.8104 97.9471 39.7234 98.4154C39.6365 98.8837 39.7379 99.3719 40.0029 99.7862C40.2678 100.201 40.6756 100.502 41.1267 100.676C42.2774 101.112 43.4354 101.511 44.6156 101.875C55.1888 105.164 67.0644 105.406 78.0164 101.903C88.9663 98.4743 98.7668 91.1367 104.823 81.6966C105.503 80.6498 106.132 79.5882 106.726 78.4978Z" fill="#D3DCFF"/>
<path d="M103.312 110.554C103.712 110.623 104.099 110.8 104.388 111.095C104.678 111.39 104.845 111.773 104.855 112.172C104.865 112.571 104.717 112.962 104.443 113.271C104.169 113.58 103.791 113.776 103.395 113.865C102.022 114.033 101.038 113.911 100.035 113.84C91.0719 112.819 82.9213 110.211 74.9646 107.068C67.0342 103.878 59.4487 99.9039 52.1724 95.2658C51.3615 94.7499 50.5386 94.2195 49.7648 93.7008C49.4264 93.4763 49.1445 93.1576 48.9995 92.7708C48.8543 92.3842 48.8557 91.9661 49.0082 91.5969C49.1606 91.2278 49.4547 90.9305 49.8304 90.7591C50.2061 90.5873 50.6307 90.5604 51.0289 90.6401C51.946 90.8199 52.905 91.0282 53.8443 91.2389C62.2773 93.1303 70.4034 95.715 78.2595 98.8746C86.1093 101.982 93.7176 105.948 101.131 109.62C101.884 109.989 102.862 110.38 103.312 110.554Z" fill="#D3DCFF"/>
<path d="M9.2312 12.3407C6.97205 3.87732 8.62344 -2.75729 12.7181 1.54911C13.6816 2.56237 15.9171 4.51182 17.306 5.86824C21.6841 10.144 39.0461 26.1957 65.8417 32.3106C70.4699 25.2571 76.9053 13.3042 90.7894 13.654C102.156 13.9404 106.383 20.9131 108.059 24.9687L120.528 28.6864C120.528 28.6864 122.004 28.9714 120.503 29.6753C119.001 30.3793 114.998 32.2564 110.247 34.3618C104.747 36.7996 108.748 36.8535 99.6703 53.6844C81.6267 82.899 53.1995 82.6777 40.6478 80.3834C30.7558 90.2712 24.9033 96.3688 14.3043 95.5428C9.61571 95.1773 8.92446 93.1823 11.6736 92.0154C14.1757 90.8422 15.6891 89.6436 16.9558 88.4393C15.5391 89.0629 13.5902 89.3324 10.8655 89.4649C6.28091 89.5966 3.38557 88.5918 2.37741 88.0719C-1.06017 86.3361 0.32942 85.677 3.81193 84.8365L9.04429 83.2383C13.9267 81.7465 32.9084 73.5121 43.0908 61.901C26.5549 60.7423 18.3157 54.1069 13.0478 47.2985C6.35354 38.2289 14.377 43.6231 20.0787 43.0251C10.3816 38.336 6.37423 27.5977 6.4925 22.9029C6.51119 22.1617 6.76501 21.9202 7.75337 21.9451C8.9888 21.9763 10.9656 22.0266 16.8452 24.1525C16.7926 24.0995 11.2895 18.544 9.2312 12.3407ZM96.3945 24.8642C94.7571 24.8229 93.3954 26.1169 93.3539 27.7543C93.3126 29.3919 94.6074 30.7536 96.245 30.7949C97.8824 30.836 99.2434 29.5412 99.2846 27.9038C99.3257 26.2666 98.0317 24.9057 96.3945 24.8642Z" fill="#ABBAFF"/>
</svg>
