<svg width="58" height="58" viewBox="0 0 58 58" fill="none" xmlns="http://www.w3.org/2000/svg">
<g clip-path="url(#clip0_874_4974)">
<path fill-rule="evenodd" clip-rule="evenodd" d="M20.054 42.7738C20.1497 43.0495 20.1901 43.3413 20.173 43.6326C20.1559 43.9238 20.0816 44.2089 19.9543 44.4714C19.827 44.734 19.6493 44.9689 19.4312 45.1628C19.2131 45.3566 18.959 45.5057 18.6833 45.6013C18.4077 45.697 18.1159 45.7374 17.8246 45.7203C17.5333 45.7032 17.2483 45.6289 16.9857 45.5016C16.7232 45.3743 16.4883 45.1965 16.2944 44.9785C16.1005 44.7604 15.9515 44.5063 15.8559 44.2306C15.6627 43.6739 15.6985 43.0633 15.9556 42.533C16.2126 42.0028 16.6698 41.5963 17.2265 41.4032C17.7832 41.21 18.3939 41.2458 18.9241 41.5029C19.4544 41.7599 19.8608 42.2171 20.054 42.7738ZM48.2986 32.9725C48.4918 33.5292 48.4559 34.1399 48.1989 34.6701C47.9418 35.2004 47.4847 35.6068 46.928 35.8C46.3712 35.9932 45.7606 35.9573 45.2303 35.7003C44.7001 35.4432 44.2936 34.9861 44.1005 34.4293C43.9073 33.8726 43.9431 33.262 44.2002 32.7317C44.4572 32.2015 44.9144 31.795 45.4711 31.6019C46.0278 31.4087 46.6385 31.4445 47.1687 31.7016C47.699 31.9586 48.1054 32.4158 48.2986 32.9725Z" fill="#6872E6"/>
<path fill-rule="evenodd" clip-rule="evenodd" d="M19.7353 27.6569L25.9286 31.8637L17.5239 35.9115L18.086 28.4376C17.3163 28.407 16.6075 27.9087 16.3401 27.1382C15.9897 26.1285 16.5276 25.019 17.5373 24.6686C17.9287 24.5351 18.3525 24.5298 18.7472 24.6536C19.1418 24.7774 19.4867 25.0238 19.7318 25.3569C19.9769 25.6901 20.1093 26.0927 20.11 26.5063C20.1106 26.9199 19.9793 27.323 19.7353 27.6569ZM36.7519 21.9603L41.8228 27.4794L32.7174 29.5079L34.9736 22.369C34.38 22.2028 33.8675 21.7555 33.6509 21.1311C33.3005 20.1214 33.8383 19.0119 34.848 18.6615C35.8577 18.3111 36.9672 18.849 37.3176 19.8587C37.585 20.6292 37.3372 21.4594 36.7519 21.9603Z" fill="#E5D05D"/>
<path d="M45.8642 18.3216C45.5138 17.312 44.4043 16.7741 43.3946 17.1245C42.3849 17.4748 41.8471 18.5844 42.1975 19.5941C42.3266 19.966 42.5706 20.2833 42.8534 20.4977C42.5611 20.5991 42.2919 20.767 42.0774 21.0498L38.0273 26.2361C37.4886 26.9142 36.5299 27.0683 35.8078 26.5746L27.2683 20.7111C27.2048 20.6622 27.1356 20.6212 27.0622 20.5891C27.4217 20.1902 27.6383 19.6831 27.678 19.1476C27.7177 18.6121 27.5781 18.0786 27.2813 17.6311C26.9845 17.1836 26.5473 16.8475 26.0386 16.6758C25.5298 16.504 24.9784 16.5063 24.4711 16.6824C23.9638 16.8584 23.5294 17.1982 23.2364 17.6482C22.9434 18.0981 22.8083 18.6328 22.8525 19.1679C22.8967 19.7031 23.1176 20.2084 23.4805 20.6042C23.8433 21 24.3275 21.2639 24.8568 21.3544C24.8221 21.4259 24.7874 21.4975 24.7706 21.5778L21.6988 31.4706C21.451 32.3009 20.5897 32.7784 19.7467 32.5797L13.3546 31.0171C13.011 30.9279 12.6957 30.9629 12.4034 31.0643C12.5013 30.7029 12.4877 30.3206 12.3586 29.9486C12.0082 28.9389 10.8987 28.401 9.88904 28.7514C8.87935 29.1018 8.34149 30.2113 8.69187 31.221C9.04225 32.2307 10.1518 32.7685 11.1615 32.4182C11.2279 32.3951 11.2943 32.3721 11.3428 32.3403C11.2762 32.7058 11.3342 33.0876 11.5476 33.4452L20.9812 49.4776C21.6624 50.6255 23.0607 51.1376 24.3228 50.6997L45.659 43.2957C46.9211 42.8577 47.7016 41.5895 47.5253 40.2664L45.0001 21.8367C44.9461 21.4238 44.7373 21.0794 44.4764 20.8425C44.5429 20.8194 44.6139 20.8097 44.667 20.7912C45.6767 20.4408 46.2146 19.3313 45.8642 18.3216Z" fill="#FFE863"/>
<path d="M33.2298 41.9225C34.1107 41.6168 34.8341 40.9737 35.2408 40.1347C35.6475 39.2957 35.7043 38.3294 35.3986 37.4486C35.0929 36.5677 34.4499 35.8443 33.6108 35.4376C32.7718 35.0309 31.8056 34.9741 30.9247 35.2798C30.0439 35.5855 29.3205 36.2286 28.9138 37.0676C28.507 37.9066 28.4503 38.8728 28.7559 39.7537C29.0616 40.6345 29.7047 41.3579 30.5437 41.7646C31.3827 42.1714 32.349 42.2281 33.2298 41.9225Z" fill="#6872E6"/>
<path fill-rule="evenodd" clip-rule="evenodd" d="M25.4479 40.9019C25.6313 41.4305 25.5972 42.0102 25.3532 42.5136C25.1092 43.017 24.6751 43.4029 24.1466 43.5863C23.6181 43.7697 23.0384 43.7356 22.5349 43.4916C22.0315 43.2475 21.6457 42.8135 21.4623 42.285C21.2789 41.7565 21.3129 41.1768 21.557 40.6733C21.801 40.1699 22.235 39.7841 22.7636 39.6007C23.2921 39.4173 23.8718 39.4513 24.3752 39.6954C24.8786 39.9394 25.2645 40.3734 25.4479 40.9019ZM42.7188 34.9087C42.9022 35.4372 42.8681 36.0169 42.6241 36.5203C42.3801 37.0238 41.9461 37.4096 41.4175 37.593C40.889 37.7764 40.3093 37.7424 39.8059 37.4983C39.3025 37.2543 38.9166 36.8203 38.7332 36.2917C38.5498 35.7632 38.5839 35.1835 38.8279 34.6801C39.0719 34.1767 39.506 33.7908 40.0345 33.6074C40.563 33.424 41.1427 33.4581 41.6461 33.7021C42.1496 33.9461 42.5354 34.3802 42.7188 34.9087Z" fill="#FE5C73"/>
</g>
<defs>
<clipPath id="clip0_874_4974">
<rect width="45" height="45" fill="white" transform="translate(0 14.7527) rotate(-19.1375)"/>
</clipPath>
</defs>
</svg>
